/* XPM */
static char * bknob_xpm[] = {
"41 41 11 1",
" 	c None",
".	c #000000",
"+	c #001F1F",
"@	c #000404",
"#	c #000A0A",
"$	c #001111",
"%	c #465AA1",
"&	c #536ABF",
"*	c #001515",
"=	c #183C2F",
"-	c #3A4A86",
"                .........                ",
"             .............+.             ",
"           .@...............@.           ",
"         .#...................#.         ",
"        .......$%&&&&&&&%$.......        ",
"       *....@%&&&&&&&&&&&&&%@....*       ",
"      *....=&&&&&&&&&&&&&&&&%=....*      ",
"     *....&&&&&&&&&&&&&&&&&&&%%.....     ",
"    .....&&&&&&&&&&&&&&&&&&&&&%%.....    ",
"    ....&&&&&&&&&&&&&&&&&&&&&&&%%.....   ",
"   #...&&&&&&&&&&&&&&&&&&&&&&&&%%%...#   ",
"  ....=&&&&&&&&&&&&&&&&&&&&&&&&%%%=....  ",
"  @..@&&&&&&&&&&&&&&&&&&&&&&&&&&%%%@..@  ",
" ....%&&&&&&&&&&&&&&&&&&&&&&&&&&%%%-.... ",
" ....&&&&&&&&&&&&&&&&&&&&&&&&&&&%%%%.... ",
" ...$&&&&&&&&&&&&&&&&&&&&&&&&&&&%%%%$... ",
"....%&&&&&&&&&&&&&&&&&&&&&&&&&&&%%%%-....",
"....&&&&&&&&&&&&&&&&&&&&&&&&&&&&%%%%%....",
"....&&&&&&&&&&&&&&&&&&&&&&&&&&&&%%%%%....",
"....&&&&&&&&&&&&&&&&&&&&&&&&&&&&%%%%%....",
"....&&&&&&&&&&&&&&&&&&&&&&&&&&&&%%%%%....",
"....&&&&&&&&&&&&&&&&&&&&&&&&&&&&%%%%%....",
"....&&&&&&&&&&&&&&&&&&&&&&&&&&&&%%%%%....",
"....&&&&&&&&&&&&&&&&&&&&&&&&&&&%%%%%%....",
"....%&&&&&&&&&&&&&&&&&&&&&&&&&&%%%%%-....",
" ...$&&&&&&&&&&&&&&&&&&&&&&&&&&%%%%%$... ",
" ....&&&&&&&&&&&&&&&&&&&&&&&&&%%%%%%.... ",
" ....%&&&&&&&&&&&&&&&&&&&&&&&%%%%%%-.... ",
"  @..@&&&&&&&&&&&&&&&&&&&&&&%%%%%%%@..@  ",
"  ....=&&&&&&&&&&&&&&&&&&&&%%%%%%%=....  ",
"   ....&&&&&&&&&&&&&&&&&&&%%%%%%%%....   ",
"   .....&&&&&&&&&&&&&&&&%%%%%%%%%.....   ",
"    .....&&&&&&&&&&&&&%%%%%%%%%%.....    ",
"     .....&&&&&&&&&%%%%%%%%%%%%.....     ",
"      .....=&&&%%%%%%%%%%%%%%=.....      ",
"       .....@%%%%%%%%%%%%%%-@.....       ",
"        .......$-%%%%%%%-$.......        ",
"         .......................         ",
"           .................@.           ",
"             ...............             ",
"                .........                "};
