/* XPM */
static char * knob_point_xpm[] = {
"11 11 10 1",
" 	c None",
".	c #000000",
"+	c #030302",
"@	c #000101",
"#	c #040403",
"$	c #BBA249",
"%	c #010101",
"&	c #080805",
"*	c #D2B13E",
"=	c #090805",
"   .....   ",
" ..++++@.. ",
" .#$$$$$%. ",
".#$$$$$$$@.",
".&$$*****+.",
".=$$*****+.",
".=$$*****+.",
".&$$*****+.",
" .=$****#. ",
" ..&==&#.. ",
"   .....   "};
