/* XPM */
static char * knob_xpm[] = {
"41 41 18 1",
" 	c None",
".	c #000000",
"+	c #001F1F",
"@	c #000404",
"#	c #000A0A",
"$	c #001111",
"%	c #818945",
"&	c #D2B13E",
"*	c #727F44",
"=	c #001515",
"-	c #667943",
";	c #BBA249",
">	c #183C2F",
",	c #697B43",
"'	c #6F7F44",
")	c #758245",
"!	c #788345",
"~	c #728044",
"                .........                ",
"             .............+.             ",
"           .@...............@.           ",
"         .#...................#.         ",
"        .......$%&&&&&&&*$.......        ",
"       =....@-&&&&&&&&&&&&&;@....=       ",
"      =....>&&&&&&&&&&&&&&&&;>....=      ",
"     =....&&&&&&&&&&&&&&&&&&&;;.....     ",
"    .....&&&&&&&&&&&&&&&&&&&&&;;.....    ",
"    ....&&&&&&&&&&&&&&&&&&&&&&&;;.....   ",
"   #...&&&&&&&&&&&&&&&&&&&&&&&&;;;...#   ",
"  ....>&&&&&&&&&&&&&&&&&&&&&&&&;;;>....  ",
"  @..@&&&&&&&&&&&&&&&&&&&&&&&&&&;;;@..@  ",
" ....,&&&&&&&&&&&&&&&&&&&&&&&&&&;;;'.... ",
" ....&&&&&&&&&&&&&&&&&&&&&&&&&&&;;;;.... ",
" ...$&&&&&&&&&&&&&&&&&&&&&&&&&&&;;;;$... ",
"....%&&&&&&&&&&&&&&&&&&&&&&&&&&&;;;;*....",
"....&&&&&&&&&&&&&&&&&&&&&&&&&&&&;;;;;....",
"....&&&&&&&&&&&&&&&&&&&&&&&&&&&&;;;;;....",
"....&&&&&&&&&&&&&&&&&&&&&&&&&&&&;;;;;....",
"....&&&&&&&&&&&&&&&&&&&&&&&&&&&&;;;;;....",
"....&&&&&&&&&&&&&&&&&&&&&&&&&&&&;;;;;....",
"....&&&&&&&&&&&&&&&&&&&&&&&&&&&&;;;;;....",
"....&&&&&&&&&&&&&&&&&&&&&&&&&&&;;;;;;....",
"....)&&&&&&&&&&&&&&&&&&&&&&&&&&;;;;;)....",
" ...$&&&&&&&&&&&&&&&&&&&&&&&&&&;;;;;$... ",
" ....&&&&&&&&&&&&&&&&&&&&&&&&&;;;;;;.... ",
" ....-&&&&&&&&&&&&&&&&&&&&&&&;;;;;;,.... ",
"  @..@&&&&&&&&&&&&&&&&&&&&&&;;;;;;;@..@  ",
"  ....>&&&&&&&&&&&&&&&&&&&&;;;;;;;>....  ",
"   ....&&&&&&&&&&&&&&&&&&&;;;;;;;;....   ",
"   .....&&&&&&&&&&&&&&&&;;;;;;;;;.....   ",
"    .....&&&&&&&&&&&&&;;;;;;;;;;.....    ",
"     .....&&&&&&&&&;;;;;;;;;;;;.....     ",
"      .....>&&&;;;;;;;;;;;;;;>.....      ",
"       .....@;;;;;;;;;;;;;;-@.....       ",
"        .......$!;;;;;;;~$.......        ",
"         .......................         ",
"           .................@.           ",
"             ...............             ",
"                .........                "};
