/* XPM */
const char * clear_to_color_xpm[] = {
"34 30 165 2",
"  	c #000000",
". 	c #DBCCE0",
"+ 	c #A795AD",
"@ 	c #29132E",
"# 	c #32163A",
"$ 	c #D3BAD7",
"% 	c #B4A3BA",
"& 	c #4C3655",
"* 	c #A978B1",
"= 	c #1C0D1C",
"- 	c #040004",
"; 	c #412A46",
"> 	c #9A4299",
", 	c #813A83",
"' 	c #762E6A",
") 	c #29122A",
"! 	c #B163AE",
"~ 	c #B0429C",
"{ 	c #A93986",
"] 	c #A23172",
"^ 	c #8F3686",
"/ 	c #CB58C9",
"( 	c #954299",
"_ 	c #914B98",
": 	c #9A214E",
"< 	c #7B0E20",
"[ 	c #70193A",
"} 	c #B04BB1",
"| 	c #ED7CF0",
"1 	c #D660D8",
"2 	c #944295",
"3 	c #884691",
"4 	c #82002D",
"5 	c #B6002C",
"6 	c #53001F",
"7 	c #52004B",
"8 	c #B345A1",
"9 	c #EB78ED",
"0 	c #E169E3",
"a 	c #94429A",
"b 	c #813B8A",
"c 	c #5E79ED",
"d 	c #5E78ED",
"e 	c #5D78EB",
"f 	c #5C77EA",
"g 	c #5B75E8",
"h 	c #5A74E6",
"i 	c #5873E5",
"j 	c #5771E2",
"k 	c #AB0E4A",
"l 	c #C40C3B",
"m 	c #2F071B",
"n 	c #37002A",
"o 	c #4F0047",
"p 	c #E876E7",
"q 	c #D35DD5",
"r 	c #B189B8",
"s 	c #5D78EC",
"t 	c #5B76E8",
"u 	c #5A75E7",
"v 	c #5973E5",
"w 	c #5772E3",
"x 	c #5670E1",
"y 	c #A40A35",
"z 	c #C40C3E",
"A 	c #475DBC",
"B 	c #050207",
"C 	c #863A88",
"D 	c #BC4EB9",
"E 	c #442545",
"F 	c #5E79EC",
"G 	c #5C77EB",
"H 	c #5A74E7",
"I 	c #5872E3",
"J 	c #5771E1",
"K 	c #556FDF",
"L 	c #B2125C",
"M 	c #C50C41",
"N 	c #526BDA",
"O 	c #4E68D3",
"P 	c #030003",
"Q 	c #060206",
"R 	c #5D79ED",
"S 	c #5D77EA",
"T 	c #5B76E9",
"U 	c #5772E4",
"V 	c #556FE0",
"W 	c #546EDE",
"X 	c #B3125C",
"Y 	c #C10A34",
"Z 	c #516AD8",
"` 	c #4F69D7",
" .	c #5C76E9",
"..	c #5873E3",
"+.	c #566FE0",
"@.	c #536DDD",
"#.	c #536CDB",
"$.	c #506AD8",
"%.	c #5069D7",
"&.	c #4F68D5",
"*.	c #5C78EB",
"=.	c #5A75E8",
"-.	c #5A73E5",
";.	c #5873E4",
">.	c #5670E0",
",.	c #556EDF",
"'.	c #546DDD",
").	c #526BDB",
"!.	c #516AD9",
"~.	c #506AD7",
"{.	c #4D66D3",
"].	c #5B76EA",
"^.	c #5974E6",
"/.	c #5772E2",
"(.	c #5570E0",
"_.	c #526CDB",
":.	c #516BD9",
"<.	c #4E69D6",
"[.	c #4D67D4",
"}.	c #4C65D2",
"|.	c #5871E3",
"1.	c #536DDC",
"2.	c #5169D8",
"3.	c #4E67D4",
"4.	c #4D66D2",
"5.	c #4B64D0",
"6.	c #5975E6",
"7.	c #5771E3",
"8.	c #546EDD",
"9.	c #4C64D1",
"0.	c #4A64CE",
"a.	c #5671E1",
"b.	c #536DDB",
"c.	c #4F69D6",
"d.	c #4E68D4",
"e.	c #4C65D1",
"f.	c #4A63CF",
"g.	c #4962CD",
"h.	c #5671E2",
"i.	c #516BD8",
"j.	c #5069D6",
"k.	c #4E67D3",
"l.	c #4B64CF",
"m.	c #4A62CD",
"n.	c #4862CB",
"o.	c #556FDE",
"p.	c #526CDA",
"q.	c #4F67D5",
"r.	c #4E66D3",
"s.	c #4C66D1",
"t.	c #4862CC",
"u.	c #4760CA",
"v.	c #546DDC",
"w.	c #4C66D2",
"x.	c #4C64CF",
"y.	c #4A62CE",
"z.	c #4962CC",
"A.	c #4861CA",
"B.	c #475FC9",
"C.	c #4E68D5",
"D.	c #4D66D1",
"E.	c #4A63CE",
"F.	c #4961CC",
"G.	c #4860CA",
"H.	c #465FC9",
"                                                                    ",
"  . . . . . . . . . . . . . . . . . . . . . . . . . . . . . . . .   ",
"  . . . . . . . . . . . . . . . . . + @ # . . . . . . . . . . . .   ",
"  . . . . . . . . . . . . . . . . . . $ % & . . . . . . . . . . .   ",
"  . . . . . . . . . . . . . . . . . * = - ; . . . . . . . . . . .   ",
"  . . . . . . . . . . . . . . . . . > , ' ) ! . . . . . . . . . .   ",
"  . . . . . . . . . . . . . . . . ~ { ] ^ / ( _ . . . . . . . . .   ",
"  . . . . . . . . . . . . . . . . : < [ } | 1 2 3 . . . . . . . .   ",
"  . . . . .                       4 5 6 7 8 9 0 a b . . . . . . .   ",
"  . . . . .   c d c d e f g h i j k l m n o 8 p q r . . . . . . .   ",
"  . . . . .   c c c s f t u v w x y z A B n C D E . . . . . . . .   ",
"  . . . . .   c c F G t H v I J K L M N O P Q Q . . . . . . . . .   ",
"  . . . . .   R c S T u v U j V W X Y Z `   . . . . . . . . . . .   ",
"  . . . . .   d G  .u v ..j +.W @.#.$.%.&.  . . . . . . . . . . .   ",
"  . . . . .   *. .=.-.;.j >.,.'.).!.~.&.{.  . . . . . . . . . . .   ",
"  . . . . .   ].u ^.;./.(.K @._.:.~.<.[.}.  . . . . . . . . . . .   ",
"  . . . . .   g ^.;.|.x K '.1.:.2.&.3.4.5.  . . . . . . . . . . .   ",
"  . . . . .   6.;.7.x K 8.1.N 2.&.3.4.9.0.  . . . . . . . . . . .   ",
"  . . . . .   ;.I a.K 8.b.N $.c.d.4.e.f.g.  . . . . . . . . . . .   ",
"  . . . . .   I h.(.8.1.N i.j.d.k.e.l.m.n.  . . . . . . . . . . .   ",
"  . . . . .   h.K o.1.p.Z %.q.r.s.l.m.t.u.  . . . . . . . . . . .   ",
"  . . . . .   +.W v.p.:.` &.k.w.x.y.z.A.B.  . . . . . . . . . . .   ",
"  . . . . .   ,.v.p.:.~.C.k.D.5.E.F.G.B.H.  . . . . . . . . . . .   ",
"  . . . . .                                 . . . . . . . . . . .   ",
"  . . . . . . . . . . . . . . . . . . . . . . . . . . . . . . . .   ",
"  . . . . . . . . . . . . . . . . . . . . . . . . . . . . . . . .   ",
"  . . . . . . . . . . . . . . . . . . . . . . . . . . . . . . . .   ",
"  . . . . . . . . . . . . . . . . . . . . . . . . . . . . . . . .   ",
"  . . . . . . . . . . . . . . . . . . . . . . . . . . . . . . . .   ",
"                                                                    "};
