/* XPM */
const char * clob_xpm[] = {
"20 20 5 1",
" 	c None",
".	c #000000",
"+	c #DBCCE0",
"@	c #C047C2",
"#	c #A43CA5",
"....................",
".++++++++++++++++++.",
".++++++......++++++.",
".+++++.@@@@@@.+++++.",
".++++.@@@@@@@@.++++.",
".+++.@@@@@@@@@#.+++.",
".++.@@@@@@@@@###.++.",
".+.@@..@.@@@#..##.+.",
".+.@.@@@.@@##.#.#.+.",
".+.@.@@@.@###..##.+.",
".+.@.@@@.####.#.#.+.",
".+.@@..@....#..##.+.",
".+.@@@@##########.+.",
".++.@@##########.++.",
".+++.##########.+++.",
".++++.########.++++.",
".+++++.######.+++++.",
".++++++......++++++.",
".++++++++++++++++++.",
"...................."};
