/* XPM */
const char * fill_xpm[] = {
"34 30 27 1",
" 	c #000000",
".	c #DBCCE0",
"+	c #181821",
"@	c #101810",
"#	c #313931",
"$	c #391810",
"%	c #5A5252",
"&	c #080008",
"*	c #42524A",
"=	c #424A4A",
"-	c #5A5A5A",
";	c #422929",
">	c #7C7B7D",
",	c #524A4A",
"'	c #4A4242",
")	c #6B5252",
"!	c #52424A",
"~	c #732929",
"{	c #848484",
"]	c #949494",
"^	c #636363",
"/	c #6B1010",
"(	c #A52939",
"_	c #737373",
":	c #9C1821",
"<	c #CE2131",
"[	c #C61821",
"                                  ",
" ................................ ",
" ................................ ",
" ................................ ",
" ..........+@+#+................. ",
" .........+.....$................ ",
" ........+.......+............... ",
" ........+...%&+++............... ",
" ........+.*& &  @............... ",
" ........+**#@&& +=.............. ",
" ........*-**#@; @%>............. ",
" ........%,-,=''*&*)=............ ",
" .......-%)%)%,!=&),%'........... ",
" .......)))~)~)! {)-=-=.......... ",
" .......;$~$~$;']]{^^,%=......... ",
" .......~~///;'^^]]{^)*)=........ ",
" .......(//(/~,%)_]]{^),=,....... ",
" .......~:<~/;=%)^_]]{_-=-=...... ",
" .......([[(/;#'%)^_]]]_^,=...... ",
" .......:[[:$$$#',%)^{]{^^=...... ",
" .......([[($&@';'!)))]]{^....... ",
" .......:[[:.  @$+=*%)__{=....... ",
" .......:[[(..  @;#'=)^^ ........ ",
" .......:[<~...  @$+#=^ ......... ",
" .......([[(....  @+#& .......... ",
" .......([[:.....   &............ ",
" .......([[:..................... ",
" ................................ ",
" ................................ ",
"                                  "};
