/* XPM */
const char * flip_xpm[] = {
"34 30 5 1",
" 	c None",
".	c #000000",
"+	c #DBCCE0",
"@	c #2700CF",
"#	c #29196D",
"..................................",
".++++++++++++++++++++++++++++++++.",
".++++++++++++++++++++++++++++++++.",
".++++++++++++++++++++++++++++++++.",
".++++++++++++++++++++++++++++++++.",
".++++++++++++++++++++++++++++++++.",
".++++++++++++++++++++++++++++++++.",
".++++++++++++++++++++++++++++++++.",
".++++++++++++++++++++++++++++++++.",
".+++++++..++++++++++++++..+++++++.",
".++++++.@.++++++++++++++.@.++++++.",
".+++++.@@...........++++.@@.+++++.",
".++++.@@@@@@@@@##..+++++.@@@.++++.",
".+++.@@@@.........++++++.@@@#.+++.",
".+++.@@@#.++++++++++++++.@@@#.+++.",
".+++.@@@#.++++++.........@@##.+++.",
".++++.#@#.+++++..##@@@@@@@##.++++.",
".+++++.##.++++...........##.+++++.",
".++++++.#.++++++++++++++.#.++++++.",
".+++++++..++++++++++++++..+++++++.",
".++++++++++++++++++++++++++++++++.",
".++++++++++++++++++++++++++++++++.",
".++++++++++++++++++++++++++++++++.",
".++++++++++++++++++++++++++++++++.",
".++++++++++++++++++++++++++++++++.",
".++++++++++++++++++++++++++++++++.",
".++++++++++++++++++++++++++++++++.",
".++++++++++++++++++++++++++++++++.",
".++++++++++++++++++++++++++++++++.",
".................................."};
