/* XPM */
const char * line_xpm[] = {
"34 30 7 1",
" 	c #000000",
".	c #DBCCE0",
"+	c #08089C",
"@	c #000008",
"#	c #000021",
"$	c #101052",
"%	c #101852",
"                                  ",
" ................................ ",
" ................................ ",
" ................................ ",
" ................................ ",
" ................................ ",
" ................................ ",
" ......................++........ ",
" ......................++........ ",
" .....................@.......... ",
" .................... ........... ",
" ................... ............ ",
" .................. ............. ",
" ................. .............. ",
" ................ ............... ",
" ............... ................ ",
" .............. ................. ",
" ............. .................. ",
" ............ ................... ",
" ........... .................... ",
" .......... ..................... ",
" .........#...................... ",
" .......$$....................... ",
" .......%$....................... ",
" ................................ ",
" ................................ ",
" ................................ ",
" ................................ ",
" ................................ ",
"                                  "};
