/* XPM */
const char * new_xpm[] = {
"20 20 5 1",
" 	c None",
".	c #000000",
"+	c #DBCCE0",
"@	c #FF2553",
"#	c #FFED25",
"....................",
".++++++++++++++++++.",
".+.++++.++++.++++.+.",
".++.+++.++++.+++.++.",
".+++.+++.++.+++.+++.",
".++++.++.++.++.++++.",
".+++++@++++++@+++++.",
".+..+++@+@@+@+++..+.",
".+++..@+@##@+@..+++.",
".++++++@####@++++++.",
".++++++@####@++++++.",
".+++..@+@##@+@..+++.",
".+..+++@+@@+@+++..+.",
".+++++@++++++@+++++.",
".++++.++.++.++.++++.",
".+++.+++.++.+++.+++.",
".++.+++.++++.+++.++.",
".+.++++.++++.++++.+.",
".++++++++++++++++++.",
"...................."};
