/* XPM */
const char * pal_hi_low_xpm[] = {
"34 30 75 1",
" 	c None",
".	c #000000",
"+	c #DBCCE0",
"@	c #2A20EA",
"#	c #EA2020",
"$	c #2AEA20",
"%	c #D9EA20",
"&	c #FFFFFF",
"*	c #BABABA",
"=	c #7C7C7C",
"-	c #DAC8DC",
";	c #DAC9DB",
">	c #D7C4D7",
",	c #D8C3D6",
"'	c #D8C4D7",
")	c #D6C0D1",
"!	c #D6BFD2",
"~	c #D4BCCC",
"{	c #D5BBCC",
"]	c #D4BCCD",
"^	c #D3B8C7",
"/	c #D3B7C7",
"(	c #D1B3C2",
"_	c #D1B2C1",
":	c #D1B3C3",
"<	c #CFAFBD",
"[	c #CFAFBC",
"}	c #CEAAB8",
"|	c #CDABB8",
"1	c #CCA6B2",
"2	c #CBA6B3",
"3	c #CAA2AE",
"4	c #CAA2AD",
"5	c #CAA3AE",
"6	c #C99EA9",
"7	c #C99EA8",
"8	c #C79AA3",
"9	c #C79AA4",
"0	c #C5959E",
"a	c #C39199",
"b	c #C3929A",
"c	c #C18D94",
"d	c #C0888F",
"e	c #BF898F",
"f	c #BF8990",
"g	c #BE848A",
"h	c #BC8185",
"i	c #BC7F84",
"j	c #BB7C80",
"k	c #BB7B7F",
"l	c #B8787B",
"m	c #B9777A",
"n	c #B9787B",
"o	c #B87376",
"p	c #B77476",
"q	c #B56F70",
"r	c #B56E70",
"s	c #B66F70",
"t	c #B66F71",
"u	c #B56F6F",
"v	c #B56E6F",
"w	c #B56D6F",
"x	c #B46D6F",
"y	c #B46D6E",
"z	c #B56D6D",
"A	c #B46C6E",
"B	c #B46C6C",
"C	c #B46B6C",
"D	c #B46B6B",
"E	c #B36B6B",
"F	c #B46A6A",
"G	c #B3696A",
"H	c #B36969",
"I	c #B36A6A",
"J	c #B36A69",
"..................................",
".++++++++++++++++++++++++++++++++.",
".++++++++++++++++++++++++++++++++.",
".++++++++++++++++++++++++++++++++.",
".++++++++++++++++++++++++++++++++.",
".++......+......++......+......++.",
".++.@@@@.+.####.++.$$$$.+.%%%%.++.",
".++.@@@@.+.####.++.$$$$.+.%%%%.++.",
".++.@@@@.+.####.++.$$$$.+.%%%%.++.",
".++.@@@@.+.####.++.$$$$.+.%%%%.++.",
".++.@@@@.+.####.++.$$$$.+.%%%%.++.",
".++.@@@@.+.####.++.$$$$.+.%%%%.++.",
".++.@@@@.+.####.++.$$$$.+.%%%%.++.",
".++.@@@@.+.####.++.$$$$.+.%%%%.++.",
"..................................",
".++++++++++++++++++++++++++++++++.",
".+..............++.............++.",
".+.&&&&&******=.-;.&&&&******=.>,.",
".'.&.***.**.**=.)!.&.****....=.~{.",
".].&.***.**.**=.^/.&.****.**.=.(_.",
".:.&.***.**.**=.<[.&.****.**.=.}}.",
".|.*.***.**.**=.12.*.****.**.=.34.",
".5.*.....**.**=.67.*.****.**.=.88.",
".9.*.***.**.**=.00.*.****.**.=.aa.",
".b.*.***.**.**=.cc.*.****.**.=.de.",
".f.*.***.**.**=.gg.*....*....=.hi.",
".h.============.jk.===========.lm.",
".n..............op.............qr.",
".sqtquvwxyzAzBBBCCDEFGHHHHGIHGJHH.",
".................................."};
