/* XPM */
const char * pic_xpm[] = {
"34 30 39 1",
" 	c #000000",
".	c #DBCCE0",
"+	c #8C4A31",
"@	c #843921",
"#	c #843121",
"$	c #8C524A",
"%	c #9C6B52",
"&	c #8C4229",
"*	c #8C5A52",
"=	c #94634A",
"-	c #8C634A",
";	c #8C4A39",
">	c #945A52",
",	c #8C5A42",
"'	c #843929",
")	c #945242",
"!	c #9C6B6B",
"~	c #946B63",
"{	c #8C4231",
"]	c #94635A",
"^	c #9C7373",
"/	c #9C9494",
"(	c #522921",
"_	c #9C6352",
":	c #9C635A",
"<	c #A57B73",
"[	c #A57B7B",
"}	c #73737B",
"|	c #100808",
"1	c #C68C8C",
"2	c #A5736B",
"3	c #8C8C9C",
"4	c #525A52",
"5	c #182921",
"6	c #84AD94",
"7	c #63736B",
"8	c #BDC6BD",
"9	c #216B39",
"0	c #295A39",
"                                  ",
" ................................ ",
" ................................ ",
" ....................+@#$........ ",
" ...................%&@#$*....... ",
" ..................=-+##;>....... ",
" ..................=,'##)>!...... ",
" ..................~;'{)]^....... ",
" ................./(#)_:<[....... ",
" ................}|(|12<......... ",
" ...............}|||/............ ",
" ..............333|/............. ",
" .............3/34/.............. ",
" ............}3}}|............... ",
" ...........}}}}5................ ",
" ..........}|444................. ",
" .........}|||6.................. ",
" ........5|||]................... ",
" ......./5||7.................... ",
" ......./4|]..................... ",
" ....../86....................... ",
" .......696...................... ",
" ......6996...................... ",
" ......60996..................... ",
" ......69996..................... ",
" .......666...................... ",
" ................................ ",
" ................................ ",
" ................................ ",
"                                  "};
