/* XPM */
const char * pic_pat_xpm[] = {
"34 30 63 1",
" 	c None",
".	c #000000",
"+	c #DBCCE0",
"@	c #D8C7D9",
"#	c #92523D",
"$	c #843421",
"%	c #996663",
"&	c #936249",
"*	c #8B4C34",
"=	c #843121",
"-	c #8F5042",
";	c #D6C4D6",
">	c #936657",
",	c #853C2C",
"'	c #8C4131",
")	c #956159",
"!	c #C6ACBA",
"~	c #B1A6B2",
"{	c #542920",
"]	c #955447",
"^	c #9D665B",
"/	c #AD8888",
"(	c #B0A8B7",
"_	c #221C1D",
":	c #281816",
"<	c #C5ADB9",
"[	c #CBB4C0",
"}	c #C9BDD1",
"|	c #8D8C9B",
"1	c #65646B",
"2	c #B0A6AD",
"3	c #030303",
"4	c #828290",
"5	c #787880",
"6	c #1C1816",
"7	c #0B0B0C",
"8	c #504D52",
"9	c #676A6C",
"0	c #353C3B",
"a	c #000090",
"b	c #6C90FC",
"c	c #514F5E",
"d	c #100808",
"e	c #6A8774",
"f	c #03038D",
"g	c #4A5A72",
"h	c #353736",
"i	c #100A89",
"j	c #B4D8FC",
"k	c #D8FCFC",
"l	c #757571",
"m	c #34211E",
"n	c #B3D7FB",
"o	c #ABC0D7",
"p	c #72A391",
"q	c #A1C7D3",
"r	c #98BFAC",
"s	c #216A39",
"t	c #92BCA8",
"u	c #226739",
"v	c #3C7D52",
"w	c #92BAA5",
"x	c #A5CCBD",
"..................................",
".++++++++++++++++++++++++++++++++.",
".++++++++++++++++++++++@#$%++++++.",
".++++++++++++++++++++++&*=-;+++++.",
".++++++++++++++++++++++>,')!+++++.",
".+++++++++++++++++++++~{]^/++++++.",
".++++++++++++++++++++(_:<[+++++++.",
".+++++++++++++++++++}|12+++++++++.",
".+++...............3456.+++++++++.",
".+++..............7890..+++++++++.",
".+++..aaaabbbbbbbbcdef..+++++++++.",
".+++..aaaabbbbbbbgdhia..+++++++++.",
".+++..aabbjjkkkkjlmnbb..+++++++++.",
".+++..aabbjjkkkkopqjbb..+++++++++.",
".+++..bbjjkkkkkkrstkjj..+++++++++.",
".+++..bbjjkkkkkkruvkjj..+++++++++.",
".+++..bbkkkkkkkkkwxkkk..+++++++++.",
".+++..bbkkkkkkkkkkkkkk..+++++++++.",
".+++..jjkkkkkkkkjjkkjj..+++++++++.",
".+++..jjkkkkkkkkjjkkjj..+++++++++.",
".+++..jjkkkkkkkkkkjjkk..+++++++++.",
".+++..jjkkkkkkkkkkjjkk..+++++++++.",
".+++..jjjjkkkkjjjjkkjj..+++++++++.",
".+++..jjjjkkkkjjjjkkjj..+++++++++.",
".+++..bbjjjjjjjjkkjjkk..+++++++++.",
".+++..bbjjjjjjjjkkjjkk..+++++++++.",
".+++....................+++++++++.",
".+++....................+++++++++.",
".++++++++++++++++++++++++++++++++.",
".................................."};
