/* XPM */
static char * plus_xpm[] = {
"20 20 6 1",
" 	c None",
".	c #000000",
"+	c #DBCCE0",
"@	c #43B1B8",
"#	c #FFFFFF",
"$	c #3C9FA5",
"....................",
".++++++++++++++++++.",
".++++++......++++++.",
".+++++.@@@@@@.+++++.",
".++++.@@@@@@@@.++++.",
".+++.@@@@##@@@$.+++.",
".++.@@@@@##@@$$$.++.",
".+.@@@@@@##@$$$$$.+.",
".+.@@@@@@##$$$$$$.+.",
".+.@@##########$$.+.",
".+.@@##########$$.+.",
".+.@@@@@$##$$$$$$.+.",
".+.@@@@$$##$$$$$$.+.",
".++.@@$$$##$$$$$.++.",
".+++.$$$$##$$$$.+++.",
".++++.$$$$$$$$.++++.",
".+++++.$$$$$$.+++++.",
".++++++......++++++.",
".++++++++++++++++++.",
"...................."};
