/* XPM */
const char * put_pal_xpm[] = {
"34 30 7 1",
" 	c None",
".	c #000000",
"+	c #DBCCE0",
"@	c #2A20EA",
"#	c #EA2020",
"$	c #2AEA20",
"%	c #D9EA20",
"..................................",
".++++++++++++++++++++++++++++++++.",
".++++++++++++++++++++++++++++++++.",
".++++++++++++++++++++++++++++++++.",
".++++++++++++++++++++++++++++++++.",
".++......+......++......+......++.",
".++.@@@@.+.####.++.$$$$.+.%%%%.++.",
".++.@@@@.+.####.++.$$$$.+.%%%%.++.",
".++.@@@@.+.####.++.$$$$.+.%%%%.++.",
".++.@@@@.+.####.++.$$$$.+.%%%%.++.",
".++.@@@@.+.####.++.$$$$.+.%%%%.++.",
".++.@@@@.+.####.++.$$$$.+.%%%%.++.",
".++.@@@@.+.####.++.$$$$.+.%%%%.++.",
".++.@@@@.+.####.++.$$$$.+.%%%%.++.",
".++.@@@@.+.####.++.$$$$.+.%%%%.++.",
".++.@@@@.+.####.++.$$$$.+.%%%%.++.",
".++.@@@@.+.####.++.$$$$.+.%%%%.++.",
".++.@@@@.+.####.++.$$$$.+.%%%%.++.",
".++.@@@@.+.####.++.$$$$.+.%%%%.++.",
".++.@@@@.+.####.++.$$$$.+.%%%%.++.",
".++.@@@@.+.####.++.$$$$.+.%%%%.++.",
".++.@@@@.+.####.++.$$$$.+.%%%%.++.",
".++.@@@@.+.####.++.$$$$.+.%%%%.++.",
".++......+......++......+......++.",
".++++++++++++++++++++++++++++++++.",
".++++++++++++++++++++++++++++++++.",
".++++++++++++++++++++++++++++++++.",
".++++++++++++++++++++++++++++++++.",
".++++++++++++++++++++++++++++++++.",
".................................."};
