/* XPM */
const char * put_pat_xpm[] = {
"34 30 13 1",
" 	c None",
".	c #000000",
"+	c #DBCCE0",
"@	c #030303",
"#	c #1C1816",
"$	c #0B0B0C",
"%	c #000090",
"&	c #6C90FC",
"*	c #100A89",
"=	c #03038D",
"-	c #B4D8FC",
";	c #D8FCFC",
">	c #B3D7FB",
"..................................",
".++++++++++++++++++++++++++++++++.",
".++++++++++++++++++++++++++++++++.",
".++++...................@..##++++.",
".++++.................$$.....++++.",
".++++..%%%%%&&&&&&&&&&***==..++++.",
".++++..%%%%%&&&&&&&&&&***==..++++.",
".++++..%%%%%&&&&&&&&&&****%..++++.",
".++++..%%%&&---;;;;;---->&&..++++.",
".++++..%%%&&---;;;;;-----&&..++++.",
".++++..&&&--;;;;;;;;--;;;--..++++.",
".++++..&&&--;;;;;;;;--;;;--..++++.",
".++++..&&&--;;;;;;;;--;;;--..++++.",
".++++..&&&;;;;;;;;;;;;;;;;;..++++.",
".++++..&&&;;;;;;;;;;;;;;;;;..++++.",
".++++..---;;;;;;;;;;--;;;--..++++.",
".++++..---;;;;;;;;;;--;;;--..++++.",
".++++..---;;;;;;;;;;--;;;--..++++.",
".++++..---;;;;;;;;;;;;---;;..++++.",
".++++..---;;;;;;;;;;;;---;;..++++.",
".++++..-----;;;;;-----;;;--..++++.",
".++++..-----;;;;;-----;;;--..++++.",
".++++..-----;;;;;-----;;;--..++++.",
".++++..&&&----------;;---;;..++++.",
".++++..&&&----------;;---;;..++++.",
".++++........................++++.",
".++++........................++++.",
".++++++++++++++++++++++++++++++++.",
".++++++++++++++++++++++++++++++++.",
".................................."};
