/* XPM */
static char * restore_xpm[] = {
"20 20 6 1",
" 	c None",
".	c #000000",
"+	c #DBCCE0",
"@	c #43B1B8",
"#	c #3C9FA5",
"$	c #FFFFFF",
"....................",
".++++++++++++++++++.",
".++++++......++++++.",
".+++++.@@@@@@.+++++.",
".++++.@@@@@@@@.++++.",
".+++.@@@@@@@@@#.+++.",
".++.@@@@@@@@@###.++.",
".+.@@@@@@@@@#####.+.",
".+.@@@@@@@@######.+.",
".+.@@@@@@$$######.+.",
".+.@@@@@@$$######.+.",
".+.@@@@@#########.+.",
".+.@@@@##########.+.",
".++.@@##########.++.",
".+++.##########.+++.",
".++++.########.++++.",
".+++++.######.+++++.",
".++++++......++++++.",
".++++++++++++++++++.",
"...................."};
