/* XPM */
const char * select_xpm[] = {
"34 30 169 2",
"  	c None",
". 	c #000000",
"+ 	c #DBCCE0",
"@ 	c #FBFBFB",
"# 	c #747474",
"$ 	c #737373",
"% 	c #717272",
"& 	c #707070",
"* 	c #6E6F6E",
"= 	c #6D6D6D",
"- 	c #6C6C6C",
"; 	c #6B6A6A",
"> 	c #696869",
", 	c #676868",
"' 	c #666666",
") 	c #646565",
"! 	c #636463",
"~ 	c #626261",
"{ 	c #616160",
"] 	c #5F5F5F",
"^ 	c #5D5D5D",
"/ 	c #5C5B5C",
"( 	c #5A5A5A",
"_ 	c #585959",
": 	c #747374",
"< 	c #727272",
"[ 	c #717170",
"} 	c #6F6F6F",
"| 	c #6E6E6E",
"1 	c #6C6D6D",
"2 	c #6B6B6B",
"3 	c #69696A",
"4 	c #686868",
"5 	c #656566",
"6 	c #636363",
"7 	c #626262",
"8 	c #606160",
"9 	c #5F6060",
"0 	c #5E5D5E",
"a 	c #5C5C5C",
"b 	c #5A5B5B",
"c 	c #595959",
"d 	c #585858",
"e 	c #737273",
"f 	c #727171",
"g 	c #706F70",
"h 	c #6C6D6C",
"i 	c #6C6B6B",
"j 	c #6A6A6A",
"k 	c #696968",
"l 	c #676767",
"m 	c #666565",
"n 	c #646464",
"o 	c #626362",
"p 	c #616161",
"q 	c #605F60",
"r 	c #5E5E5F",
"s 	c #5B5B5C",
"t 	c #585859",
"u 	c #575757",
"v 	c #727172",
"w 	c #717070",
"x 	c #6D6E6D",
"y 	c #696969",
"z 	c #676768",
"A 	c #656464",
"B 	c #606060",
"C 	c #5F5F5E",
"D 	c #5D5E5D",
"E 	c #575857",
"F 	c #565656",
"G 	c #737474",
"H 	c #727373",
"I 	c #707171",
"J 	c #6F6F70",
"K 	c #6D6D6E",
"L 	c #6C6C6D",
"M 	c #6A696A",
"N 	c #676667",
"O 	c #656565",
"P 	c #646463",
"Q 	c #626263",
"R 	c #606161",
"S 	c #5F5F60",
"T 	c #5E5E5E",
"U 	c #5C5D5C",
"V 	c #5B5B5B",
"W 	c #5A595A",
"X 	c #565555",
"Y 	c #737372",
"Z 	c #717171",
"` 	c #6D6C6D",
" .	c #6B6C6B",
"..	c #605F5F",
"+.	c #5B5C5C",
"@.	c #585958",
"#.	c #545454",
"$.	c #6C6C6B",
"%.	c #676867",
"&.	c #646465",
"*.	c #5B5A5B",
"=.	c #535353",
"-.	c #737374",
";.	c #6E6D6E",
">.	c #6D6C6C",
",.	c #6A6969",
"'.	c #676666",
").	c #636464",
"!.	c #5D5D5C",
"~.	c #5A5959",
"{.	c #585857",
"].	c #565756",
"^.	c #555555",
"/.	c #525252",
"(.	c #666665",
"_.	c #565655",
":.	c #515151",
"<.	c #717071",
"[.	c #686869",
"}.	c #5E5F5F",
"|.	c #555554",
"1.	c #525151",
"2.	c #505050",
"3.	c #707170",
"4.	c #706F6F",
"5.	c #666767",
"6.	c #5D5C5C",
"7.	c #5B5B5A",
"8.	c #575756",
"9.	c #535354",
"0.	c #4F4F4F",
"a.	c #6E6F6F",
"b.	c #696868",
"c.	c #656665",
"d.	c #595A5A",
"e.	c #4E4F4E",
"f.	c #5F5E5F",
"g.	c #525152",
"h.	c #4D4E4D",
"i.	c #6B6A6B",
"j.	c #696A69",
"k.	c #666667",
"l.	c #616061",
"m.	c #515150",
"n.	c #4D4E4E",
"o.	c #4C4C4D",
"p.	c #666566",
"q.	c #60605F",
"r.	c #5B5C5B",
"s.	c #5A5A59",
"t.	c #525352",
"u.	c #4F4E4E",
"v.	c #4D4C4D",
"w.	c #4C4C4B",
"x.	c #656465",
"y.	c #616262",
"z.	c #616060",
"A.	c #5A5A5B",
"B.	c #545353",
"C.	c #4E4E4E",
"D.	c #4E4E4D",
"E.	c #4B4C4C",
"F.	c #4A4A4A",
"G.	c #646363",
"H.	c #5E5E5D",
"I.	c #565657",
"J.	c #505151",
"K.	c #4B4B4B",
"L.	c #4B4A4A",
". . . . . . . . . . . . . . . . . . . . . . . . . . . . . . . . . . ",
". + + + + + + + + + + + + + + + + + + + + + + + + + + + + + + + + . ",
". + + + + + + + + + + + + + + + + + + + + + + + + + + + + + + + + . ",
". + + + + + + + + + + + + + + + + + + + + + + + + + + + + + + + + . ",
". + + + + + + + + + + + + + + + + + + + + + + + + + + + + + + + + . ",
". + + + . @ . . @ . . @ . . @ . . @ . . @ . . @ . . @ . . @ + + + . ",
". + + + . # # # # # $ % & * = - ; > , ' ) ! ~ { ] ^ / ( _ . + + + . ",
". + + + @ # # # # : < [ } | 1 2 3 4 ' 5 6 7 8 9 0 a b c d . + + + . ",
". + + + . # # # # e f g | h i j k l m n o p q r ^ s ( t u @ + + + . ",
". + + + . # # # $ v w } x - ; y z ' A 6 ~ B C D a ( _ E F . + + + . ",
". + + + @ # # G H I J K L 2 M , N O P Q R S T U V W d u X . + + + . ",
". + + + . # # Y Z & * `  .j > l ' n 6 p ..T ^ +.( @.u F #.@ + + + . ",
". + + + . # $ < & } K $.j y %.' &.6 ~ B ] 0 a *.c E F #.=.. + + + . ",
". + + + @ -.< Z & ;.>.2 ,.4 '.5 ).7 p ] T !.V ~.{.].^.#./.. + + + . ",
". + + + . Y f & * = 2 j > l (.n 6 p q r !./ W d u _.#.=.:.@ + + + . ",
". + + + . < <.} ;.- j [.l ' O 6 ~ 8 }.^ a ( c d F |.=.1.2.. + + + . ",
". + + + @ 3.4.| - 2 M 4 5.O 6 7 p S T 6.7.~.d 8.^.9./.:.0.. + + + . ",
". + + + . & a.= i j b.l c.n 6 p B T ^ +.d.c u X #.=.:.2.e.@ + + + . ",
". + + + . } x - j k z ' ) 6 7 B f.^ a ( c u F |.=.g.2.e.h.. + + + . ",
". + + + @ | L i.j.4 k.O n 7 l.] T U *.W d F ^.#./.m.0.n.o.. + + + . ",
". + + + . = 2 j y l p.&.6 p q.r ^ r.s.d u _.#.t.:.2.u.v.w.@ + + + . ",
". + + + . - i.y %.' x.6 y.z.f.^ +.A.c {.F #.B.g.2.C.D.E.F.. + + + . ",
". + + + @ 2 j.4 k.m G.7 z.q.H.a V c d I.^.#./.J.0.D.o.K.L.. + + + . ",
". + + + . . @ . . @ . . @ . . @ . . @ . . @ . . @ . . @ . @ + + + . ",
". + + + + + + + + + + + + + + + + + + + + + + + + + + + + + + + + . ",
". + + + + + + + + + + + + + + + + + + + + + + + + + + + + + + + + . ",
". + + + + + + + + + + + + + + + + + + + + + + + + + + + + + + + + . ",
". + + + + + + + + + + + + + + + + + + + + + + + + + + + + + + + + . ",
". + + + + + + + + + + + + + + + + + + + + + + + + + + + + + + + + . ",
". . . . . . . . . . . . . . . . . . . . . . . . . . . . . . . . . . "};
