/* XPM */
const char * small_knob_xpm[] = {
"20 21 145 2",
"  	c None",
". 	c #000001",
"+ 	c #000000",
"@ 	c #000105",
"# 	c #000102",
"$ 	c #0A0B06",
"% 	c #4B441B",
"& 	c #5D4F1C",
"* 	c #292A14",
"= 	c #080703",
"- 	c #000203",
"; 	c #0D0B04",
"> 	c #665E26",
", 	c #C7AB3F",
"' 	c #D2B13E",
") 	c #B79C3B",
"! 	c #36341A",
"~ 	c #000303",
"{ 	c #7B7B70",
"] 	c #C7C7B5",
"^ 	c #52534C",
"/ 	c #090803",
"( 	c #A1872F",
"_ 	c #C6A841",
": 	c #524720",
"< 	c #7D7E73",
"[ 	c #2E2E2B",
"} 	c #8A8A7E",
"| 	c #E0E0CC",
"1 	c #AEAF9F",
"2 	c #050606",
"3 	c #171407",
"4 	c #4E4217",
"5 	c #AC9133",
"6 	c #D0AF3F",
"7 	c #BDA348",
"8 	c #1C1E11",
"9 	c #292B27",
"0 	c #34342F",
"a 	c #4A4A43",
"b 	c #453C1B",
"c 	c #B49B44",
"d 	c #A48D3D",
"e 	c #453B16",
"f 	c #C0A546",
"g 	c #807537",
"h 	c #010101",
"i 	c #9F9F91",
"j 	c #D3D3C0",
"k 	c #0F0F0E",
"l 	c #685A29",
"m 	c #CDAE41",
"n 	c #322A0F",
"o 	c #AB9746",
"p 	c #121209",
"q 	c #585850",
"r 	c #CFCFBC",
"s 	c #352E15",
"t 	c #A18933",
"u 	c #927B2C",
"v 	c #4F4218",
"w 	c #BBA249",
"x 	c #1D190B",
"y 	c #45453F",
"z 	c #524518",
"A 	c #5F501C",
"B 	c #715F22",
"C 	c #BFA138",
"D 	c #C0A547",
"E 	c #D4D4C1",
"F 	c #131311",
"G 	c #4D471E",
"H 	c #CEAF40",
"I 	c #A99645",
"J 	c #111109",
"K 	c #5D5D55",
"L 	c #4E4F48",
"M 	c #16160A",
"N 	c #C3A83D",
"O 	c #D1B03E",
"P 	c #C2A746",
"Q 	c #7C7035",
"R 	c #020202",
"S 	c #A3A394",
"T 	c #B2B2A2",
"U 	c #060605",
"V 	c #6B6026",
"W 	c #D1B13E",
"X 	c #181B0F",
"Y 	c #2E2E2A",
"Z 	c #4F4F48",
"` 	c #040401",
" .	c #98802D",
"..	c #CFAF3F",
"+.	c #C9AB42",
"@.	c #BEA448",
"#.	c #B69E47",
"$.	c #483E1C",
"%.	c #090908",
"&.	c #9D9D8F",
"*.	c #D8D8C5",
"=.	c #0B0903",
"-.	c #5E5623",
";.	c #C6A944",
">.	c #BCA348",
",.	c #988940",
"'.	c #2C2C17",
").	c #98988B",
"!.	c #53534C",
"~.	c #080807",
"{.	c #000202",
"].	c #39361A",
"^.	c #493F1C",
"/.	c #1C1F11",
"(.	c #1B1B18",
"_.	c #969689",
":.	c #BABAA9",
"<.	c #64645B",
"[.	c #0C0C0B",
"}.	c #353530",
"|.	c #7E7F73",
"1.	c #D2D2BF",
"2.	c #D6D6C3",
"3.	c #5F5F56",
"4.	c #DBDBC8",
"5.	c #79796E",
"6.	c #B8B8A7",
"7.	c #DADAC7",
"8.	c #30302C",
"9.	c #DCDCC9",
"0.	c #828277",
"a.	c #55554E",
"b.	c #A5A596",
"c.	c #22221F",
"d.	c #ACAC9D",
"e.	c #A7A798",
"f.	c #959588",
"g.	c #67675E",
"h.	c #4B4B44",
"i.	c #D7D7C4",
"j.	c #D9D9C6",
"k.	c #DFDFCB",
"l.	c #1F1F25",
"m.	c #32322D",
"n.	c #0B0B0A",
"| | | | | | | | . + + @ | | | | | | | | ",
"| | | | | | # $ % & & * = - | | | | | | ",
"| | | | | ; > , ' ' ' ' ) ! ~ | | | | | ",
"{ ] ] ^ / ( ' ' ' ' ' ' ' _ : + < ] ] [ ",
"} | 1 2 3 4 5 ' ' ' ' ' ' 6 7 8 9 | | 0 ",
"} | a b c d e ' ' ' ' ' ' ' f g h i | 0 ",
"} j k l m ' n ' ' ' ' ' ' ' f o p q | 0 ",
"} r + s t u v ' ' ' ' ' ' ' f w x y | 0 ",
"} r + z A B C ' ' ' ' ' ' ' D w x y | 0 ",
"} E F G ' ' ' ' ' ' ' ' ' H w I J K | 0 ",
"} | L M N ' ' ' ' ' ' ' O P w Q R S | 0 ",
"} | T U V ' ' ' ' ' ' W P w w X Y | | 0 ",
"} | | Z `  .' ' ' ..+.@.w #.$.%.&.| | 0 ",
"} | | *.a =.-.;.D >.w w ,.'.+ ).| | | 0 ",
"} | | | | !.~.{.].^.^./.+ (._.| | | | 0 ",
"} | | | | | :.<.F [.[.}.|.r | | | | | 0 ",
"} | | | | 1.<.| 2.3.| 4.5.6.| | | | | 0 ",
"} | | | | 7.8.| 9.Y | 0.a.b.| | | | | 0 ",
"} | | | | T c.d.6.c.e.f.g.h.| | | | | 0 ",
"} | | | | *.E i.j.E 2.k.E 7.| | | | | 0 ",
"l.m.m.m.m.m.m.m.m.m.m.m.m.m.m.m.m.m.m.n."};
