/* XPM */
const char * sprite_high_xpm[] = {
"20 20 14 1",
" 	c None",
".	c #000000",
"+	c #DBCCE0",
"@	c #FF9F9F",
"#	c #FF6767",
"$	c #D20000",
"%	c #C67F7F",
"&	c #FFFFFF",
"*	c #BDBDBD",
"=	c #FF1B1B",
"-	c #FF8000",
";	c #5E3A3A",
">	c #D06800",
",	c #646464",
"....................",
".++++++......++++++.",
".++++..@#@#@@..++++.",
".+++.$%&....&#@.+++.",
".++.%*=.----.##@.++.",
".+.;%=.>-.&&-.&&@.+.",
".+.$$*.>..&&-.&#@.+.",
".+.;,*.>....-.&##.+.",
".+.;,=.>>..--.&&@.+.",
".++.$=*.>>>>.&*%.++.",
".+++.;;*....*$=.+++.",
".++++..;$,;;;..++++.",
".++++++......++++++.",
".++++++++++++++++++.",
".+++++...++.++.++++.",
".++++.+++++.++.++++.",
".+++++..+++....++++.",
".+++++++.++.++.++++.",
".++++...+++.++.++++.",
"...................."};
