/* XPM */
const char * sprite_edit_xpm[] = {
"20 20 5 1",
" 	c None",
".	c #000000",
"+	c #DBCCE0",
"@	c #D26900",
"#	c #FF8000",
"....................",
".++++++++++++++++++.",
".+++++..+++++++++++.",
".+++++.@.++++++++++.",
".+++++.@#.+++++++++.",
".+++++.@##.++++++++.",
".+++++.@@##.+++++++.",
".+++++.@@###.++++++.",
".+++++.@@@###.+++++.",
".+++++.@@@#..++++++.",
".+++++.@@..++++++++.",
".+++++...++++++++++.",
".++++++++++++++++++.",
".++++++++++++++++++.",
".++++++++...+++++++.",
".+++++++.++++++++++.",
".++++++++..++++++++.",
".++++++++++.+++++++.",
".+++++++...++++++++.",
"...................."};
