/* XPM */
const char * sprite_xpm[] = {
"20 20 8 1",
" 	c None",
".	c #000000",
"+	c #DBCCE0",
"@	c #FFFFFF",
"#	c #BDBDBD",
"$	c #FF8000",
"%	c #646464",
"&	c #D06800",
"....................",
".++++++......++++++.",
".++++..@@@@@@..++++.",
".+++.##@....@@@.+++.",
".++.###.$$$$.@@@.++.",
".+.%##.&$.@@$.@@@.+.",
".+.%%#.&..@@$.@@@.+.",
".+.%%#.&....$.@@@.+.",
".+.%%#.&&..$$.@@@.+.",
".++.%%#.&&&&.@##.++.",
".+++.%%#....###.+++.",
".++++..%%%%%%..++++.",
".++++++......++++++.",
".++++++++++++++++++.",
".++++++++...+++++++.",
".+++++++.++++++++++.",
".++++++++..++++++++.",
".++++++++++.+++++++.",
".+++++++...++++++++.",
"...................."};
