/* XPM */
const char * stop_xpm[] = {
"20 20 6 1",
" 	c None",
".	c #000000",
"+	c #DBCCE0",
"@	c #FF0000",
"#	c #E80000",
"$	c #FFFFFF",
"....................",
".++++++++++++++++++.",
".++++++......++++++.",
".+++++.@@@@@@.+++++.",
".++++.@@@@@@@@.++++.",
".+++.@@@@@@@@@#.+++.",
".++.@@@@@@@@@###.++.",
".+.@@$$$$$@$#$$##.+.",
".+.@$@@@$@$#$$#$#.+.",
".+.@@$@@$@$#$$#$#.+.",
".+.@@@$@$#$#$$$##.+.",
".+.@$$@@$##$#$###.+.",
".+.@@@@##########.+.",
".++.@@##########.++.",
".+++.##########.+++.",
".++++.########.++++.",
".+++++.######.+++++.",
".++++++......++++++.",
".++++++++++++++++++.",
"...................."};
