/* XPM */
const char * undo_xpm[] = {
"34 30 41 1",
" 	c #000000",
".	c #DBCCE0",
"+	c #0000FF",
"@	c #0000B5",
"#	c #B4BB90",
"$	c #E79439",
"%	c #8C5221",
"&	c #B5BE93",
"*	c #E79C2A",
"=	c #895826",
"-	c #48300D",
";	c #ECB995",
">	c #8F5520",
",	c #3E2D16",
"'	c #302605",
")	c #BD8C7A",
"!	c #E6B693",
"~	c #D98F6B",
"{	c #6A4116",
"]	c #2D2504",
"^	c #271A05",
"/	c #C4CBAC",
"(	c #EEBC9B",
"_	c #D2A076",
":	c #543D38",
"<	c #362807",
"[	c #211D03",
"}	c #B98673",
"|	c #DD946B",
"1	c #5A3D2F",
"2	c #363517",
"3	c #5B3C26",
"4	c #B87668",
"5	c #48300C",
"6	c #4C3926",
"7	c #B18C7A",
"8	c #111111",
"9	c #2B2507",
"0	c #9D7F50",
"a	c #000077",
"b	c #647864",
"                                  ",
" ................................ ",
" ................................ ",
" ........   ..................... ",
" ....... ++ ..................... ",
" ...... +@@ ..................... ",
" ..... +@@@ ..................... ",
" .... +@@@@ ..................... ",
" ... ++@@@@ ..................... ",
" ... +@@@@@@     ..            .. ",
" .. ++@@@@@@@+++ .. .......... .. ",
" .. +@@@@@@@@@++ .. .....#$%%. .. ",
" . +@@@@@@@@@@@+ .. ....&*%=-. .. ",
" . +@@@@@@@@@@@+ .. ....;>%,'. .. ",
" . +@@@@@@@@@@@+ .. ...)!~{]^. .. ",
" . +@@@@@@@@@@@+ .. ../(_:<[.. .. ",
" . +@@@@@@@@@@@+ .. ..}|123... .. ",
" . +@@@@@@@@@@@+ .. ..4567.... .. ",
" . @@@@@@@@@@@@@ .. .890...... .. ",
" .. @@@@@@@@@@aa .. .b........ .. ",
" .. a@@@@@@@@aaa .. .......... .. ",
" ... a@@@@@a     ..            .. ",
" ... aa@@@a ..................... ",
" .... aaaaa ..................... ",
" ..... aaaa ..................... ",
" ...... aaa ..................... ",
" ....... aa ..................... ",
" ........   ..................... ",
" ................................ ",
"                                  "};
