/* XPM */
const char * zoom_in_xpm[] = {
"34 30 10 1",
" 	c #000000",
".	c #DBCCE0",
"+	c #003D41",
"@	c #007077",
"#	c #0097A0",
"$	c #00B8C3",
"%	c #00F0FF",
"&	c #858585",
"*	c #3D3D3D",
"=	c #555555",
"                                  ",
" ................................ ",
" ................................ ",
" ................................ ",
" ................................ ",
" ................................ ",
" ........       ................. ",
" ....... ++@#$#@ ................ ",
" ...... +@@#$%$#@ ............... ",
" ..... +@@#$%%%$#@ ....... ...... ",
" ..... +@@@#$%%%$# ....... ...... ",
" ..... @@@@@#$%%%$ .....     .... ",
" ..... @@@@@@#$%$# ....... ...... ",
" ..... @@##@@@#$#@ ....... ...... ",
" ..... +@#$#@@@#@@ .............. ",
" ..... +@@#$#@@@@+............... ",
" ...... +@@#$#@@+ ............... ",
" ....... ++@##++    ............. ",
" ........      ..  & ............ ",
" ................ *=& ........... ",
" ................. *=& .......... ",
" .................. *=& ......... ",
" ................... *=& ........ ",
" .................... * ......... ",
" ..................... .......... ",
" ................................ ",
" ................................ ",
" ................................ ",
" ................................ ",
"                                  "};
